# xmcd
#
# Track frame offsets: 
#        150
#        12536
#        25132
#        38404
#        49250
#        58614
#        71825
#        82654
#        96278
#        109090
#        122514
#        136279
#        149211
#        160606
#        171852
#        183408
#        196579
#        210693
#        223264
#        238108
#        248650
#
# Disc length: 3484 seconds
#
# Revision: 0
# Processed by: cddbd v1.5.2PL0 Copyright (c) Steve Scherf et al.
# Submitted via: ExactAudioCopy v1.0b3
#
DISCID=290d9a15
DTITLE=Blues Various - Best of Blues
DYEAR=1900
DGENRE=Blues
TTITLE0=Ivory Joe Hunter - Haven Came Down To Earth
TTITLE1=Ivory Joe Hunter - It May Sound Silly
TTITLE2=Ivory Joe Hunter - I Need You
TTITLE3=Ivory Joe Hunter - You Mean Everything To Me
TTITLE4=Ivory Joe Hunter - Shooty Booty
TTITLE5=Ivory Joe Hunter - Yes, I want You
TTITLE6=Ivory Joe Hunter - I Just Want To Love You
TTITLE7=Robert Johnson - They're Red Hot
TTITLE8=Robert Johnson - Preachin' Blues (Up Jumped The Devil)
TTITLE9=Robert Johnson - I Believe I'll Dust My Broom
TTITLE10=Robert Johnson - Sweet Home Chicago
TTITLE11=Robert Johnson - Kindhearted Woman Blues
TTITLE12=Robert Johnson - Crossroad Blues
TTITLE13=Robert Johnson - Love In Vain Blues
TTITLE14=Robert Johnson - Me And The Devil Blues
TTITLE15=Elmore James - Sho' Nuff I Do
TTITLE16=Elmore James - Please find My Baby
TTITLE17=Elmore James - Cry For Me Baby
TTITLE18=Elmore James - Sunny Land
TTITLE19=Elmore James - Hawaiian Boogie
TTITLE20=Elmore James - T.V. Mama
EXTD=
EXTT0=
EXTT1=
EXTT2=
EXTT3=
EXTT4=
EXTT5=
EXTT6=
EXTT7=
EXTT8=
EXTT9=
EXTT10=
EXTT11=
EXTT12=
EXTT13=
EXTT14=
EXTT15=
EXTT16=
EXTT17=
EXTT18=
EXTT19=
EXTT20=
PLAYORDER=
